<?xml version="1.0" standalone="no"?>
<!DOCTYPE svg PUBLIC "-//W3C//DTD SVG 1.1//EN" "http://www.w3.org/Graphics/SVG/1.1/DTD/svg11.dtd" >
<svg xmlns="http://www.w3.org/2000/svg">
<metadata>
This is a custom SVG webfont generated by Font Squirrel.
Copyright   : Copyright c 2010 by Jos Buivenga All rights reserved
Designer    : Jos Buivenga
Foundry     : Jos Buivenga
Foundry URL : httpexljbriscom
</metadata>
<defs>
<font id="CallunaSansItalic" horiz-adv-x="1032" >
<font-face units-per-em="2048" ascent="1536" descent="-512" />
<missing-glyph horiz-adv-x="491" />
<glyph unicode=" "  horiz-adv-x="491" />
<glyph unicode="&#x09;" horiz-adv-x="491" />
<glyph unicode="&#xa0;" horiz-adv-x="491" />
<glyph unicode="!" horiz-adv-x="528" d="M51 63q0 61 37 109.5t105 48.5q90 0 90 -86q0 -59 -38 -109.5t-106 -50.5q-88 0 -88 88zM164 401l184 965h178l-233 -965h-129z" />
<glyph unicode="&#x22;" horiz-adv-x="688" d="M190 883l97 483h143l-14 -76l-127 -407h-99zM494 883l96 483h143l-14 -76l-127 -407h-98z" />
<glyph unicode="#" horiz-adv-x="1277" d="M25 258l28 109h250l80 295h-252l29 108h254l114 414h111l-115 -414h320l114 414h111l-115 -414h283l-29 -108h-282l-82 -295h286l-28 -109h-287l-121 -440h-112l120 440h-317l-121 -440h-112l120 440h-247zM414 367h319l80 295h-317z" />
<glyph unicode="$" horiz-adv-x="874" d="M0 86l35 139l33 -27q20 -17 90.5 -47t146.5 -32l86 405q-53 29 -85 49.5t-70.5 55.5t-57 81t-18.5 105q0 133 95 225.5t269 104.5l37 178h90l-39 -178q156 -8 244 -60l-43 -131q-98 55 -227 62l-82 -385q74 -37 116 -64.5t80.5 -89t38.5 -141.5q0 -145 -104.5 -239.5 t-265.5 -106.5l-37 -172h-90l37 172q-82 6 -152 29.5t-98 46.5zM303 834q0 -96 121 -160l72 338q-90 -14 -141.5 -61t-51.5 -117zM397 123q90 16 143.5 65.5t53.5 124.5q0 94 -121 168z" />
<glyph unicode="%" horiz-adv-x="1441" d="M102 0l1184 1380l78 -63l-1131 -1317h-131zM170 991q0 137 103.5 247t242.5 110q117 0 185.5 -72t68.5 -186q0 -139 -106.5 -248t-239.5 -109q-115 0 -184.5 71.5t-69.5 186.5zM283 999q0 -68 39.5 -114.5t107.5 -46.5q90 0 159.5 76.5t69.5 166.5q0 68 -42 115t-109 47 q-86 0 -155.5 -76t-69.5 -168zM715 233q0 137 103.5 247t242.5 110q117 0 185.5 -72t68.5 -186q0 -139 -106.5 -248t-239.5 -109q-115 0 -184.5 71.5t-69.5 186.5zM827 242q0 -68 40 -115t108 -47q90 0 159.5 76.5t69.5 167.5q0 68 -42 114.5t-109 46.5q-86 0 -156 -75.5 t-70 -167.5z" />
<glyph unicode="&#x26;" horiz-adv-x="1323" d="M41 270q0 145 99.5 248t275.5 205q-43 135 -43 254q0 96 33.5 185t124 159t223.5 70q121 0 190.5 -70t69.5 -176q0 -78 -33 -144.5t-101.5 -125t-127 -96.5t-154.5 -93q23 -55 68 -143q80 -150 170 -260q123 96 199.5 210.5t76.5 211.5q0 88 -53 155l141 41 q51 -74 51 -184q0 -123 -91 -268.5t-236 -262.5q137 -133 252 -159l-80 -113q-147 33 -301 182q-205 -121 -402 -121q-150 0 -251 77t-101 218zM193 285q0 -88 60 -132t155 -44q135 0 294 86q-86 102 -151 221q-51 90 -92 188q-129 -76 -197.5 -150.5t-68.5 -168.5zM535 981 q0 -84 24 -176q147 82 225 156.5t78 169.5q0 53 -29.5 89.5t-91.5 36.5q-96 0 -151 -75.5t-55 -200.5z" />
<glyph unicode="'" horiz-adv-x="385" d="M190 883l97 483h143l-14 -76l-127 -407h-99z" />
<glyph unicode="(" horiz-adv-x="583" d="M98 410q0 274 97.5 536t273.5 469l117 -37l-38 -45q-24 -29 -85.5 -125t-108.5 -200.5t-85 -265t-38 -324.5q0 -127 21.5 -250t52.5 -208t62.5 -152.5t54.5 -100.5l20 -33l-120 -43l-24 36q-15 24 -54 101.5t-68 162.5t-53.5 215.5t-24.5 263.5z" />
<glyph unicode=")" horiz-adv-x="591" d="M-14 -326l39 46q25 30 87 131.5t110 209t87 271.5t39 330q0 379 -176 665l-35 51l125 37q8 -10 23.5 -31.5t53.5 -93t66.5 -152.5t52 -208t23.5 -262q0 -279 -96 -556.5t-287 -480.5z" />
<glyph unicode="*" d="M188 854l293 109l31 -54l-242 -198zM188 1128l82 144l242 -199l-31 -53zM510 573l51 308h62l51 -308h-164zM510 1409h164l-51 -307h-62zM672 909l30 54l293 -109l-82 -143zM672 1073l241 199l82 -144l-293 -108z" />
<glyph unicode="+" horiz-adv-x="1064" d="M53 449v129h406v421h133v-421h399v-129h-399v-449h-133v449h-406z" />
<glyph unicode="," horiz-adv-x="450" d="M-98 -281q92 72 135 131.5t43 139.5q0 74 -49 184l170 55q41 -66 41 -163q0 -240 -269 -420z" />
<glyph unicode="-" horiz-adv-x="708" d="M113 440v144h462v-144h-462z" />
<glyph unicode="." horiz-adv-x="464" d="M31 63q0 61 36.5 109.5t104.5 48.5q90 0 90 -86q0 -59 -38 -109.5t-105 -50.5q-88 0 -88 88z" />
<glyph unicode="/" horiz-adv-x="714" d="M-109 -401l771 1767h139l-770 -1767h-140z" />
<glyph unicode="0" horiz-adv-x="1081" d="M74 367q0 233 156.5 426.5t396.5 193.5q174 0 264 -106.5t90 -270.5q0 -145 -63.5 -288.5t-192.5 -245t-293 -101.5q-174 0 -266 112t-92 280zM229 371q0 -111 56.5 -184.5t165.5 -73.5q160 0 267 152.5t107 328.5q0 111 -54 183.5t-163 72.5q-164 0 -271.5 -153.5 t-107.5 -325.5z" />
<glyph unicode="1" horiz-adv-x="702" d="M-6 0l18 133h199l151 707h-186l17 123h346l-177 -830h201l-26 -133h-543z" />
<glyph unicode="2" horiz-adv-x="878" d="M-2 0v104q25 14 64.5 41t141 105t179.5 149.5t141.5 159.5t63.5 154q0 59 -36 100t-99 41q-53 0 -112.5 -23.5t-90.5 -48.5l-33 -22l-67 102q16 14 45.5 35t115.5 55.5t164 34.5q127 0 203 -68.5t76 -175.5q0 -82 -43 -164.5t-130 -166.5t-157 -140.5l-180 -138.5h477 l-16 -133h-707z" />
<glyph unicode="3" horiz-adv-x="782" d="M-121 -274q211 0 380 95t169 259q0 193 -252 192h-53l14 125q127 18 261 114.5t134 213.5q0 59 -35.5 94t-105.5 35q-111 0 -239 -78l-50 111l45 27q29 17 111 45t154 28q131 0 208.5 -70.5t77.5 -179.5q0 -117 -96 -216t-219 -156q209 -66 209 -277t-207 -347t-506 -136 v121z" />
<glyph unicode="4" horiz-adv-x="1021" d="M-31 53l8 109l766 825h127l-172 -807h187l-27 -127h-188l-95 -448h-151l94 448h-549zM158 180h387l117 541z" />
<glyph unicode="5" horiz-adv-x="770" d="M-119 -272q135 0 255 35.5t209 126t89 219.5q0 61 -20.5 107t-52 73.5t-85 49t-99.5 32t-118 22.5l121 570h545l-16 -134h-410l-70 -325q168 -43 268.5 -131t100.5 -254q0 -162 -101.5 -281t-261 -176t-354.5 -57v123z" />
<glyph unicode="6" horiz-adv-x="1003" d="M78 403q0 168 63.5 338t175 312.5t280.5 235.5t361 102l11 -131q-229 -12 -398.5 -150.5t-257.5 -347.5q102 115 275 115q150 0 233.5 -97.5t83.5 -249.5q0 -205 -138 -380t-351 -175q-168 0 -253 116.5t-85 311.5zM238 403q0 -295 192 -294q127 0 220 125.5t93 289.5 q0 219 -190 219q-154 0 -281 -114l-8 -8q-26 -112 -26 -218z" />
<glyph unicode="7" horiz-adv-x="882" d="M-82 -362q401 528 778 1181h-579l14 144h770l-12 -109q-342 -594 -819 -1257z" />
<glyph unicode="8" horiz-adv-x="1007" d="M51 291q0 72 30 136.5t92.5 120.5t117.5 94t143 91q-145 154 -145 305q0 156 116.5 254.5t272.5 98.5q129 0 209 -73t80 -194q0 -123 -81 -215t-229 -184q66 -61 101 -101t67.5 -106.5t32.5 -136.5q0 -162 -136 -284t-319 -122q-156 0 -254 91.5t-98 224.5zM199 295 q0 -84 59 -135t148 -51q109 0 201.5 72.5t92.5 181.5q0 51 -27.5 104t-59 88t-89.5 90q-78 -45 -126 -77.5t-99 -78t-75.5 -93.5t-24.5 -101zM446 1049q0 -115 121 -236q125 78 190.5 147.5t65.5 155.5q0 72 -46 106.5t-107 34.5q-82 0 -153 -55t-71 -153z" />
<glyph unicode="9" horiz-adv-x="1003" d="M14 -266q229 12 397.5 144t258.5 331q-104 -113 -275 -113q-145 0 -226 94.5t-81 241.5q0 205 135 380t344 175q168 0 253 -116.5t85 -311.5q0 -162 -63.5 -327.5t-175 -303t-280.5 -227.5t-361 -98zM250 438q0 -209 180 -209q145 0 283 117l6 6q27 113 26 207 q0 295 -192 295q-121 0 -212 -126t-91 -290z" />
<glyph unicode=":" horiz-adv-x="534" d="M61 63q0 61 37 109.5t105 48.5q90 0 90 -86q0 -59 -38 -109.5t-105 -50.5q-89 0 -89 88zM201 766q0 61 36.5 109.5t104.5 48.5q90 0 90 -86q0 -59 -38 -109.5t-105 -50.5q-88 0 -88 88z" />
<glyph unicode=";" horiz-adv-x="526" d="M-63 -281q92 72 135 131.5t43 139.5q0 74 -49 184l170 55q41 -66 40 -163q0 -240 -268 -420zM199 766q0 61 36.5 109.5t104.5 48.5q90 0 90 -86q0 -59 -38 -109.5t-105 -50.5q-88 0 -88 88z" />
<glyph unicode="&#x3c;" horiz-adv-x="1064" d="M37 463v94l872 469l31 -135l-727 -381l727 -401l-31 -134z" />
<glyph unicode="=" horiz-adv-x="1064" d="M63 254v129h918v-129h-918zM63 643v129h918v-129h-918z" />
<glyph unicode="&#x3e;" horiz-adv-x="1064" d="M111 109l725 401l-725 381l30 135l873 -469v-94l-873 -488z" />
<glyph unicode="?" horiz-adv-x="716" d="M63 66q0 59 37 107t105 48q90 0 90 -88q0 -57 -38 -107.5t-105 -50.5q-89 1 -89 91zM172 401v19q0 82 33 158q37 84 94 145t114.5 113.5t98.5 103.5t41 94q0 115 -246 234l-67 30l65 138q16 -6 45 -19.5t102.5 -54.5t129 -85t101.5 -109.5t46 -131.5q0 -61 -42 -119.5 t-102 -109.5l-122 -107q-61 -55 -108.5 -133t-55.5 -166h-127z" />
<glyph unicode="@" horiz-adv-x="1644" d="M45 250q0 178 74 354t195.5 311.5t295.5 219.5t361 84q266 0 422.5 -159t156.5 -403q0 -160 -70.5 -315.5t-213.5 -243.5q-43 -27 -94.5 -46t-87 -28.5t-104.5 -24.5l-103 -24l4 172q-47 -76 -117 -124t-146 -48q-98 0 -159.5 80t-61.5 215q0 250 190.5 451t454.5 201 l142 -9l-131 -622q-12 -57 -18.5 -99t-6.5 -55l2 -12q184 29 284.5 177.5t100.5 346.5q0 209 -115.5 334t-328.5 125t-398.5 -126t-290 -322.5t-104.5 -407.5q0 -217 111.5 -351t288.5 -145l-33 -112q-225 10 -362.5 182t-137.5 424zM563 287q0 -84 27.5 -131t77.5 -47 q109 0 235 200l105 490q-170 0 -307.5 -156.5t-137.5 -355.5z" />
<glyph unicode="A" horiz-adv-x="1204" d="M-72 0l768 1376h154l225 -1376h-157l-66 414h-528l-228 -414h-168zM399 551h430l-96 604z" />
<glyph unicode="B" horiz-adv-x="1155" d="M86 0l270 1366h320q209 0 303 -82t94 -207q0 -213 -223 -350q174 -82 174 -285q0 -190 -150.5 -316t-357.5 -126h-430zM274 137h222q166 0 261 84t95 213q0 201 -258 201h-221zM399 772h291q8 4 22.5 12.5t51.5 36t64.5 59t50 82t22.5 101.5q0 82 -59.5 124t-202.5 42 h-150z" />
<glyph unicode="C" horiz-adv-x="1314" d="M115 553q0 209 101 399.5t293.5 314.5t428.5 124q115 0 219.5 -30t151.5 -58l47 -29l-90 -133q-16 12 -44 30.5t-119 49t-186 30.5q-141 0 -264 -64.5t-200.5 -165.5t-121.5 -222t-44 -240q0 -197 111.5 -320.5t303.5 -123.5q203 0 392 131l14 10l63 -125l-23 -16.5 t-66.5 -38t-104.5 -48t-134 -37t-159 -16.5q-254 0 -411.5 160t-157.5 418z" />
<glyph unicode="D" horiz-adv-x="1404" d="M86 0l270 1366h363q166 0 303 -55.5t228 -183.5t91 -314q0 -362 -265 -587.5t-662 -225.5h-328zM272 137h131q375 0 570.5 191.5t195.5 480.5q0 193 -124.5 306.5t-360.5 113.5h-197z" />
<glyph unicode="E" horiz-adv-x="1067" d="M86 0l270 1366h766l-28 -137h-607l-90 -463h480l-29 -137h-479l-97 -492h605l-27 -137h-764z" />
<glyph unicode="F" horiz-adv-x="1017" d="M86 0l270 1366h748l-27 -137h-588l-92 -469h465l-28 -146h-465l-123 -614h-160z" />
<glyph unicode="G" horiz-adv-x="1374" d="M111 545q0 211 104 403.5t301 317.5t438 125q111 0 217.5 -27t155.5 -53l51 -27l-90 -133l-45 28q-29 17 -120 44.5t-185 27.5q-193 0 -347.5 -108.5t-231 -266t-76.5 -323.5q0 -201 119.5 -319.5t336.5 -118.5l254 37l82 409h-276l26 137h437l-132 -659 q-225 -63 -417 -64q-266 0 -434 153t-168 417z" />
<glyph unicode="H" horiz-adv-x="1478" d="M86 0l270 1366h160l-119 -600h768l117 600h160l-271 -1366h-159l125 629h-766l-125 -629h-160z" />
<glyph unicode="I" horiz-adv-x="552" d="M86 0l270 1366h160l-270 -1366h-160z" />
<glyph unicode="J" horiz-adv-x="552" d="M-203 -238q246 27 320 392l239 1212h160l-240 -1210q-23 -98 -51 -175t-76.5 -155t-124 -127t-176.5 -64z" />
<glyph unicode="K" horiz-adv-x="1138" d="M86 0l270 1366h160l-115 -582h25l629 582h213l-725 -661l477 -705h-193l-426 647h-28l-127 -647h-160z" />
<glyph unicode="L" horiz-adv-x="997" d="M86 0l270 1366h160l-244 -1229h625l-29 -137h-782z" />
<glyph unicode="M" horiz-adv-x="1691" d="M61 0l320 1366h221l168 -1128l621 1128h239l-225 -1366h-156l191 1174l-652 -1174h-120l-185 1171l-266 -1171h-156z" />
<glyph unicode="N" horiz-adv-x="1464" d="M84 0l272 1366h160l528 -1141l228 1141h155l-272 -1366h-160l-534 1120l-221 -1120h-156z" />
<glyph unicode="O" horiz-adv-x="1538" d="M115 557q0 205 100 395.5t286.5 314.5t409.5 124q254 0 409 -157t155 -407q0 -209 -105.5 -405.5t-293 -321.5t-402.5 -125q-252 0 -405.5 165t-153.5 417zM287 563q0 -190 100 -319t293 -129q174 0 320.5 111.5t223 274.5t76.5 326q0 182 -102 303t-291 121 q-254 0 -437 -209t-183 -479z" />
<glyph unicode="P" horiz-adv-x="1112" d="M86 0l270 1366h357q211 0 310 -94t99 -254q0 -219 -160.5 -355.5t-375.5 -136.5h-236l-104 -526h-160zM377 664h188q176 0 280.5 95t104.5 249q0 106 -62.5 163.5t-211.5 57.5h-187z" />
<glyph unicode="Q" horiz-adv-x="1538" d="M117 569q0 201 100 388.5t286.5 310.5t407.5 123q256 0 411 -158t155 -410q0 -184 -80 -350t-217.5 -293t-306 -222t-363.5 -157q319 -109 534 -108q137 0 257 37t190 94l43 -125q-188 -137 -514 -137q-160 0 -313.5 40t-460.5 154l10 88q78 12 231.5 61.5t204.5 82.5v4 q-14 -1 -28 -1q-231 0 -384 157q-163 167 -163 421zM289 569q0 -190 106.5 -325t292.5 -135q174 0 318.5 111.5t220.5 274t76 330.5q0 184 -102.5 305t-291.5 121q-254 0 -437 -209t-183 -473z" />
<glyph unicode="R" horiz-adv-x="1159" d="M86 0l270 1366h322q211 0 312.5 -93t101.5 -233q0 -166 -111 -279.5t-250 -162.5l277 -598h-172l-258 578h-218l-114 -578h-160zM387 715h207q113 0 219.5 87t106.5 230q0 88 -68 142.5t-211 54.5h-152z" />
<glyph unicode="S" horiz-adv-x="1001" d="M29 90l43 150q14 -12 40.5 -33t108.5 -53.5t166 -32.5q131 0 223 63.5t92 173.5q0 76 -51 136.5t-123 107.5l-144 97q-73 50 -124 128t-51 179q0 158 130 271.5t335 113.5q76 0 156.5 -15.5t123.5 -32.5l43 -14l-41 -149q-131 66 -276 65q-129 0 -217 -61.5t-88 -169.5 q0 -76 50 -135.5t123 -103.5l145 -92q73 -48 123 -126t50 -182q0 -184 -140 -292t-335 -108q-203 0 -354 109z" />
<glyph unicode="T" horiz-adv-x="1148" d="M160 1229l28 137h1086l-29 -137h-467l-243 -1229h-160l243 1229h-458z" />
<glyph unicode="U" horiz-adv-x="1411" d="M156 385q0 61 16 147l166 834h160l-168 -848q-12 -68 -13 -121q0 -143 81 -212.5t220 -69.5q170 0 289 100t156 291l170 860h160l-174 -877q-51 -256 -213 -385t-394 -129q-199 0 -327.5 101.5t-128.5 308.5z" />
<glyph unicode="V" horiz-adv-x="1153" d="M184 1366h160l154 -1128l604 1128h174l-741 -1376h-156z" />
<glyph unicode="W" horiz-adv-x="1839" d="M215 1366h156l88 -1128l530 1128h164l82 -1128l537 1128h167l-663 -1376h-164l-90 1104l-530 -1104h-160z" />
<glyph unicode="X" horiz-adv-x="1167" d="M-59 0l573 696l-289 670h172l230 -555l454 555h195l-576 -696l289 -670h-172l-231 555l-453 -555h-192z" />
<glyph unicode="Y" horiz-adv-x="1116" d="M160 1366h180l238 -608l483 608h186l-618 -770l-117 -596h-160l117 594z" />
<glyph unicode="Z" horiz-adv-x="1128" d="M-18 0v96l960 1133h-694l28 137h906l-11 -96l-958 -1133h748l-29 -137h-950z" />
<glyph unicode="[" horiz-adv-x="598" d="M117 -317l147 1683h359l-11 -113h-229l-127 -1458h229l-10 -112h-358z" />
<glyph unicode="\" horiz-adv-x="1222" d="M268 1366h138l589 -1767h-139z" />
<glyph unicode="]" horiz-adv-x="667" d="M23 -317l10 112h229l127 1458h-229l10 113h358l-147 -1683h-358z" />
<glyph unicode="^" horiz-adv-x="1126" d="M84 512l438 879h103l438 -879h-152l-340 684l-340 -684h-147z" />
<glyph unicode="_" horiz-adv-x="1110" d="M-92 -76h1024v-117h-1024v117z" />
<glyph unicode="`" horiz-adv-x="1024" d="M455 1432h166l135 -340l-99 -56z" />
<glyph unicode="a" horiz-adv-x="989" d="M45 254q0 150 66.5 305.5t206 271t315.5 115.5q49 0 138 -12t142 -12l-135 -633q-16 -74 -16 -139q0 -76 26 -127l-141 -48q-35 59 -35 136q0 49 11 98h-5q-66 -94 -158.5 -164t-195.5 -70q-96 0 -157.5 71t-61.5 208zM209 272q0 -164 94 -163q92 0 220 146t159 290 l55 258q-55 16 -127 16q-145 0 -273 -172t-128 -375z" />
<glyph unicode="b" horiz-adv-x="1011" d="M33 0l305 1434l158 28l-162 -760h6q51 90 149.5 167t194.5 77q102 0 170 -84t68 -233q0 -109 -39 -221.5t-108.5 -211t-183.5 -160t-249 -61.5q-47 0 -149.5 12.5t-159.5 12.5zM209 119q74 -18 137 -19q180 0 296 153t116 347q0 104 -37 152.5t-88 48.5 q-86 0 -212 -141.5t-151 -251.5z" />
<glyph unicode="c" horiz-adv-x="876" d="M61 365q0 221 147.5 401t360.5 180q168 0 269 -94l6 -6l-70 -121q-10 10 -28.5 24.5t-76 39t-114.5 24.5q-133 0 -231.5 -135t-98.5 -307q0 -121 54.5 -191.5t154.5 -70.5q135 0 248 100l4 4l55 -119q-14 -12 -41.5 -32.5t-112.5 -53.5t-169 -33q-162 0 -259.5 109 t-97.5 281z" />
<glyph unicode="d" horiz-adv-x="1017" d="M49 289q0 156 73 305t213 250.5t312 101.5q72 0 141 -18l109 506l158 28l-250 -1173q-16 -72 -17 -139q0 -76 27 -127l-141 -48q-35 59 -35 136l10 98h-4q-164 -233 -350 -234q-121 0 -183.5 86.5t-62.5 227.5zM213 303q0 -82 27.5 -138t89.5 -56q98 0 223 147t156 289 l39 182q3 12 2 22q0 31 -23 48q-31 23 -82 22q-172 0 -302 -148.5t-130 -367.5z" />
<glyph unicode="e" horiz-adv-x="864" d="M55 326q0 223 151.5 421.5t362.5 198.5q90 0 156 -42t66 -136q0 -90 -67 -167t-171 -124t-182 -72.5t-152 -39.5v-27q0 -229 178 -229q133 0 277 110l4 4l29 -129l-46 -33q-29 -20 -115.5 -53t-170.5 -33q-158 0 -239 99.5t-81 251.5zM240 485q80 20 153.5 47t153.5 84.5 t80 120.5q0 33 -20.5 54.5t-61.5 21.5q-88 0 -177 -95.5t-128 -232.5z" />
<glyph unicode="f" horiz-adv-x="624" d="M-188 -377q274 92 374 858l39 312h-125v84l144 53l6 45q12 100 38.5 184t75 163t129 124t189.5 45q66 0 122 -14.5t81 -26.5l24 -14l-69 -123q-74 43 -158 43q-59 0 -105.5 -25.5t-75 -62.5t-51 -99.5t-33.5 -116t-24 -130.5h248l-29 -129h-237q-61 -504 -113 -707 q-123 -494 -387 -571z" />
<glyph unicode="g" horiz-adv-x="989" d="M2 -295q0 74 61 168h140q-53 -84 -53 -133q0 -47 36.5 -80t110.5 -33t127 28t82 67.5t49 104t26.5 119l16.5 134.5t18 125h-4q-59 -90 -151 -160t-195 -70q-98 0 -159.5 71t-61.5 210q0 109 41 227.5t112.5 223t187.5 172t249 67.5q45 0 136 -12t144 -12l-118 -555 q-14 -61 -30 -174l-27 -194q-11 -81 -42.5 -178t-77 -158.5t-129 -104.5t-200.5 -43q-137 0 -213 56t-76 134zM209 272q0 -164 94 -163q92 0 220 146t159 290l57 266q-63 10 -114 10q-158 0 -287 -172t-129 -377z" />
<glyph unicode="h" horiz-adv-x="1034" d="M35 0l305 1434l158 28l-162 -762q197 246 403 246q92 0 140.5 -53t48.5 -133q0 -49 -39 -236l-113 -524h-151l112 530q31 139 31 181q0 94 -86 94q-100 0 -242.5 -139.5t-165.5 -247.5l-88 -418h-151z" />
<glyph unicode="i" horiz-adv-x="454" d="M35 0l196 922h152l-197 -922h-151zM279 1251q0 49 32.5 87t83.5 38q88 0 88 -94q0 -51 -32.5 -89t-81.5 -38q-90 0 -90 96z" />
<glyph unicode="j" horiz-adv-x="454" d="M-262 -358q225 27 299 366l194 914h152l-193 -906q-49 -238 -147 -356.5t-258 -144.5zM279 1251q0 49 32.5 87t83.5 38q88 0 88 -94q0 -51 -32.5 -89t-81.5 -38q-90 0 -90 96z" />
<glyph unicode="k" horiz-adv-x="901" d="M35 0l305 1434l158 28l-191 -895h23l387 355h211l-482 -428l322 -494h-180l-283 449h-24l-95 -449h-151z" />
<glyph unicode="l" horiz-adv-x="454" d="M35 0l305 1434l158 28l-312 -1462h-151z" />
<glyph unicode="m" horiz-adv-x="1560" d="M33 0l192 907l158 29l-49 -231q188 242 383 241q100 0 146 -70.5t26 -177.5q190 248 389 248q88 0 132 -53t44 -133q0 -49 -39 -236l-112 -524h-152l113 530q31 154 30 181q0 94 -73 94q-94 0 -229.5 -140.5t-160.5 -252.5l-88 -412h-151l113 530q31 154 30 181 q0 94 -76 94q-92 0 -227 -135t-158 -246l-90 -424h-151z" />
<glyph unicode="n" d="M33 0l192 907l158 29l-51 -238q199 248 405 248q92 0 140.5 -53t48.5 -133q0 -49 -39 -236l-113 -524h-151l112 530q31 139 31 181q0 94 -86 94q-100 0 -241.5 -139.5t-166.5 -249.5l-88 -416h-151z" />
<glyph unicode="o" d="M61 367q0 221 152 400t369 179q168 0 261 -111.5t93 -265.5q0 -92 -36 -194.5t-100.5 -192.5t-167 -148.5t-218.5 -58.5q-170 0 -261.5 114t-91.5 278zM225 373q0 -121 49.5 -192.5t151.5 -71.5q152 0 249 142t97 312q0 113 -49 181.5t-150 68.5q-143 0 -245.5 -127 t-102.5 -313z" />
<glyph unicode="p" horiz-adv-x="1013" d="M-70 -475l295 1382l158 29l-49 -236q160 246 344 246q121 0 183.5 -86t62.5 -227q0 -156 -70 -305.5t-204 -251t-300 -101.5q-76 0 -164 35l-98 -456zM231 223q-3 -16 -3 -30q0 -39 25 -61q34 -30 99 -30q162 0 285 148.5t123 367.5q0 82 -27.5 138.5t-89.5 56.5 q-98 0 -225 -154.5t-158 -302.5z" />
<glyph unicode="q" horiz-adv-x="1011" d="M51 293q0 109 39 221.5t108.5 210.5t183.5 159.5t249 61.5q45 0 147.5 -12t161.5 -12l-293 -1368l-158 -29l148 686h-6q-53 -86 -149.5 -161t-192.5 -75q-102 0 -170 84t-68 234zM215 322q0 -104 37 -152.5t88 -48.5q86 0 212 140t148 247l62 295q-66 18 -135 18 q-180 0 -296 -152t-116 -347z" />
<glyph unicode="r" horiz-adv-x="681" d="M33 0l192 907l158 29l-51 -238h8q150 242 299 242l72 -12l-35 -170q-41 14 -76 14q-92 0 -205 -154q-109 -150 -125 -217l-86 -401h-151z" />
<glyph unicode="s" horiz-adv-x="729" d="M-2 51l35 133q98 -76 221 -75q78 0 125 32.5t47 96.5q0 59 -46 108t-102.5 83t-102.5 97.5t-46 145.5q0 127 93 200.5t239 73.5q61 0 115.5 -13t78.5 -28l23 -12l-37 -133q-90 53 -190 53q-168 0 -168 -125q0 -47 30.5 -86t73.5 -68.5t87 -63.5t75 -88t31 -124 q0 -137 -97.5 -210t-234.5 -73q-141 0 -250 76z" />
<glyph unicode="t" horiz-adv-x="716" d="M113 170q0 43 12 94l115 529h-125v86l153 51l41 196l166 39l-51 -243h276l-28 -129h-275l-108 -502q-10 -43 -10 -88q0 -94 71 -94q84 0 209 102l37 -125q-162 -111 -289 -111q-92 0 -143 49.5t-51 145.5z" />
<glyph unicode="u" horiz-adv-x="1021" d="M72 176q0 47 39 240l106 506h154l-111 -512q-35 -164 -35 -197q0 -43 22.5 -73.5t69.5 -30.5q100 0 231.5 146t162.5 290l80 377h151l-135 -633q-37 -174 10 -266l-147 -48q-53 86 -25 234h-4q-164 -233 -365 -234q-100 0 -152 59.5t-52 141.5z" />
<glyph unicode="v" horiz-adv-x="880" d="M117 922h162q0 -231 65 -752l80 136l91 157l78 141q48 88 83 165t61 153h166q-31 -78 -74 -166l-71 -146q-29 -57 -93 -167l-84 -142l-102 -165q-82 -132 -92 -146h-156q-100 533 -114 932z" />
<glyph unicode="w" horiz-adv-x="1425" d="M123 922h162q0 -281 55 -750q236 408 360 750h154q0 -285 55 -756q266 461 375 756h160q-150 -377 -494 -932h-145q-55 291 -84 633q-141 -297 -348 -633h-146q-88 465 -104 932z" />
<glyph unicode="x" horiz-adv-x="892" d="M-59 0l403 473l-209 449h164l150 -340l284 340h182l-407 -471l213 -451h-160l-155 340l-287 -340h-178z" />
<glyph unicode="y" horiz-adv-x="868" d="M-276 -358q215 35 444 317q20 25 28.5 50.5t8.5 52.5v65q-6 156 -34 392.5t-67 402.5h164q92 -453 68 -740q127 188 236.5 400.5t154.5 339.5h166q-156 -387 -442 -805q-190 -274 -375 -439q-172 -154 -320 -163z" />
<glyph unicode="z" horiz-adv-x="851" d="M-14 0v96l606 695h-449l17 131h657l-12 -107l-604 -684h487l-29 -131h-673z" />
<glyph unicode="{" horiz-adv-x="684" d="M25 485l10 105q88 2 148.5 57t90 165t39 174.5t19.5 182.5q2 14 2 21q14 166 130 247t300 81l-8 -105q-96 -8 -151.5 -25.5t-85.5 -65.5t-39 -92t-19 -149q-29 -262 -89.5 -376.5t-166.5 -163.5v-4q70 -27 117 -129.5t47 -278.5q0 -51 -6.5 -145.5t-6.5 -128.5 q0 -109 49.5 -155t194.5 -58l-8 -105q-182 0 -278.5 67.5t-96.5 225.5q0 31 8 129t8 162q1 360 -208 364z" />
<glyph unicode="|" horiz-adv-x="612" d="M227 -461v1995h140v-1995h-140z" />
<glyph unicode="}" horiz-adv-x="684" d="M-80 -463l8 105q92 8 146.5 26.5t84 62.5t41 94t19.5 148q23 258 94.5 392.5t163.5 171.5v4q-166 70 -166 399q0 37 6.5 131t6.5 129q0 111 -49.5 157t-192.5 56l8 105q172 0 272.5 -72t100.5 -217q0 -31 -8.5 -127t-8.5 -154q0 -354 211 -358l-10 -105 q-86 -2 -146.5 -60t-89 -160.5t-42 -183.5t-21.5 -185q-2 -20 -2 -31q-27 -328 -426 -328z" />
<glyph unicode="~" horiz-adv-x="1163" d="M106 358q0 317 267 318q80 0 141 -32t93 -69.5t76 -69.5t91 -32q139 0 139 195h127q0 -317 -266 -318q-80 0 -141.5 32t-93 69.5t-75.5 69.5t-91 32q-139 0 -140 -195h-127z" />
<glyph unicode="&#xa1;" horiz-adv-x="509" d="M-39 -444l234 964h129l-185 -964h-178zM205 786q0 59 38 109.5t105 50.5q88 0 88 -88q0 -61 -37 -109.5t-104 -48.5q-90 0 -90 86z" />
<glyph unicode="&#xa2;" horiz-adv-x="886" d="M84 496q0 184 127 337.5t326 170.5l43 178h90l-43 -178q74 -8 132 -39t79 -56l20 -26l-92 -113q-6 8 -19.5 22.5t-58.5 40t-94 31.5l-139 -588q127 6 237 99l49 -119q-12 -12 -36.5 -32.5t-104.5 -53.5t-166 -33h-12l-43 -182h-90l45 195q-117 29 -183.5 122t-66.5 224z M248 498q0 -166 119 -209l135 569q-111 -27 -182.5 -131t-71.5 -229z" />
<glyph unicode="&#xa3;" horiz-adv-x="1069" d="M-8 111q16 4 39.5 14t75 57t73.5 113l64 194h-121l22 103h131l58 170q66 199 157 297t238 98q94 0 165 -30.5t95 -61.5l25 -31l-88 -112q-6 10 -20.5 27.5t-67 45t-113.5 27.5q-82 0 -140.5 -58.5t-103.5 -207.5l-49 -164h363l-33 -103h-363q-29 -90 -63.5 -174 t-56.5 -122l-21 -39q162 -70 293 -70q86 0 145.5 49t102.5 193h133q-100 -377 -375 -377q-80 0 -218 40t-185 40q-51 0 -125 -29z" />
<glyph unicode="&#xa5;" horiz-adv-x="1091" d="M125 311l20 103h281l18 80l-24 59h-244l23 102h182l-186 478h163l185 -496l401 496h170l-389 -478h205l-23 -102h-264l-47 -57l-18 -82h299l-21 -103h-299l-65 -311h-152l66 311h-281z" />
<glyph unicode="&#xa6;" horiz-adv-x="602" d="M209 354h147v-733h-147v733zM209 672v733h147v-733h-147z" />
<glyph unicode="&#xa7;" horiz-adv-x="1163" d="M-143 -379l65 105l39 -27q25 -16 94.5 -43t134.5 -27q154 0 249.5 129t117.5 320l78 620q37 293 158 418l116 -22q-100 -123 -127 -303l-92 -717q-33 -254 -164 -406.5t-350 -152.5q-86 0 -166 26.5t-116 52.5zM139 -188q102 125 129 303l92 716q33 254 163 407t349 153 q86 0 167 -27t118 -53l37 -27l-64 -104q-127 96 -272 96q-154 0 -249 -129t-117 -320l-78 -620q-37 -295 -158 -418z" />
<glyph unicode="&#xa8;" horiz-adv-x="1024" d="M350 1251q0 47 31 83t80 36q41 0 62.5 -24.5t21.5 -63.5q0 -49 -32 -85t-77 -36q-86 0 -86 90zM688 1251q0 47 31 83t80 36q84 0 84 -88q0 -49 -32 -85t-77 -36q-86 0 -86 90z" />
<glyph unicode="&#xa9;" horiz-adv-x="1611" d="M123 682q0 293 207 500t499.5 207t499.5 -207t207 -500t-207 -500t-499.5 -207t-499.5 207t-207 500zM227 682q0 -254 175.5 -433t427 -179t427 179t175.5 433t-175.5 433t-427 179t-427 -179t-175.5 -433zM434 680q0 168 111.5 295t304.5 127q172 0 287 -113l10 -10 l-92 -113l-28 27q-17 16 -73.5 43t-115.5 27q-111 0 -173.5 -79t-62.5 -190q0 -117 70.5 -198.5t187.5 -81.5q63 0 119.5 24.5t81.5 48.5l26 25l56 -119q-10 -12 -31.5 -32.5t-97.5 -53.5t-166 -33q-180 0 -297 117t-117 289z" />
<glyph unicode="&#xaa;" horiz-adv-x="786" d="M170 909q0 168 120 325t308 157q31 0 99.5 -8.5t107.5 -8.5l-94 -444q-10 -47 -11 -88q0 -57 21 -99l-115 -32q-25 39 -25 97q0 31 7 66h-4q-117 -164 -246 -163q-74 0 -121 50t-47 148zM309 924q0 -111 60 -111q57 0 143 99.5t106 197.5l37 170q-39 12 -73 12 q-102 0 -187.5 -116.5t-85.5 -251.5z" />
<glyph unicode="&#xab;" horiz-adv-x="999" d="M37 510l2 8q33 23 463 428l106 -31l-379 -409l211 -393l-108 -31l-94 138l-70 104l-47 71q-23 35 -34 50l-21 30q-10 14 -15.5 20.5t-13.5 14.5zM410 510l2 8q33 23 462 428l107 -31l-379 -409l211 -393l-108 -31l-95 138l-69 104l-47 71q-23 35 -34 50l-22 30l-15 20.5 t-13 14.5z" />
<glyph unicode="&#xac;" horiz-adv-x="1249" d="M147 668v129h938v-570h-137v441h-801z" />
<glyph unicode="&#xad;" horiz-adv-x="708" d="M113 440v144h462v-144h-462z" />
<glyph unicode="&#xae;" horiz-adv-x="901" d="M193 1087.5q0 145.5 104 250t249.5 104.5t250 -104.5t104.5 -250t-104.5 -250t-250 -104.5t-249.5 104.5t-104 250zM262 1087.5q0 -120.5 83 -207.5t200 -87t201.5 87t84.5 207q0 119 -84.5 206t-201.5 87t-200 -86t-83 -206.5zM416 918v348h123q143 0 143 -105 q0 -68 -68 -100l105 -143h-94l-88 126h-37v-126h-84zM500 1100h45q51 0 51 53q0 55 -66 55h-30v-108z" />
<glyph unicode="&#xaf;" horiz-adv-x="1024" d="M152 1206l26 121h467l-27 -121h-466z" />
<glyph unicode="&#xb0;" horiz-adv-x="681" d="M201 1144.5q0 102.5 72.5 174.5t177 72t177 -72t72.5 -174.5t-72.5 -174t-177 -71.5t-177 71.5t-72.5 174zM303 1144.5q0 -63.5 43 -107.5t104.5 -44t104.5 44t43 107.5t-43 107.5t-104.5 44t-104.5 -44t-43 -107.5z" />
<glyph unicode="&#xb1;" horiz-adv-x="1064" d="M55 643v129h385v371h133v-371h390v-129h-390v-397h-133v397h-385zM57 0v129h908v-129h-908z" />
<glyph unicode="&#xb2;" horiz-adv-x="669" d="M111 836l233 202q127 111 185.5 185.5t58.5 150.5q0 57 -35 87t-82 30q-37 0 -76 -18.5t-59 -36.5l-23 -19l-67 82q12 12 32.5 30.5t85 50.5t130.5 32q100 0 164.5 -59.5t64.5 -159.5q0 -86 -56.5 -176.5t-207.5 -223.5l-127 -110h342l-15 -113h-548v66z" />
<glyph unicode="&#xb3;" horiz-adv-x="632" d="M106 809l48 106q74 -43 161 -43q80 0 133.5 41t53.5 101q0 57 -48 84.5t-120 27.5h-45l14 109q86 8 166 63.5t80 122.5q0 74 -92 74q-33 0 -69 -10t-56 -21l-19 -10l-53 88q96 70 219 70q94 0 153.5 -48t59.5 -122q0 -76 -59.5 -139.5t-136.5 -102.5q147 -53 147 -178 q0 -102 -93 -184t-231 -82q-119 0 -213 53z" />
<glyph unicode="&#xb4;" horiz-adv-x="1024" d="M377 1092l278 340h183l-371 -396z" />
<glyph unicode="&#xb5;" horiz-adv-x="1110" d="M-61 -442q61 199 96 362l213 1002h151l-133 -625q-8 -41 -8 -73q0 -107 96 -107q129 0 330 172l135 633h152l-146 -684q-8 -39 -7 -64q0 -28 9 -39q18 -20 101 -20l-29 -129q-57 -10 -96 -11q-90 0 -120 44q-25 36 -25 98q0 13 1 26q-184 -168 -354 -168q-72 0 -121 27 q-18 -92 -41.5 -252t-29.5 -192h-174z" />
<glyph unicode="&#x3bc;" horiz-adv-x="1110" d="M-61 -442q61 199 96 362l213 1002h151l-133 -625q-8 -41 -8 -73q0 -107 96 -107q129 0 330 172l135 633h152l-146 -684q-8 -39 -7 -64q0 -28 9 -39q18 -20 101 -20l-29 -129q-57 -10 -96 -11q-90 0 -120 44q-25 36 -25 98q0 13 1 26q-184 -168 -354 -168q-72 0 -121 27 q-18 -92 -41.5 -252t-29.5 -192h-174z" />
<glyph unicode="&#xb6;" horiz-adv-x="1308" d="M123 784q0 238 192.5 410t444.5 172h596l-23 -117h-139l-248 -1249h-125l248 1249h-145l-256 -1290q-18 -94 -47 -166t-77 -139.5t-126 -103t-180 -35.5v129q121 0 192.5 73.5t104.5 241.5l79 408h-16q-238 0 -356.5 117.5t-118.5 299.5z" />
<glyph unicode="&#xb7;" horiz-adv-x="489" d="M121 485q0 61 37 109.5t104 48.5q90 0 90 -86q0 -59 -38 -109.5t-105 -50.5q-88 0 -88 88z" />
<glyph unicode="&#xb8;" horiz-adv-x="1024" d="M139 -422l45 94q59 -55 138 -55q47 0 80.5 21.5t33.5 54.5q0 27 -31.5 49t-64.5 49t-33 59q0 31 49 109l33 51h105l-27 -45q-37 -61 -37 -76q0 -29 33 -52t64.5 -55t31.5 -81q0 -74 -69.5 -130t-167.5 -56q-49 0 -94.5 15t-67.5 32z" />
<glyph unicode="&#xb9;" horiz-adv-x="542" d="M104 770l21 104h164l125 619h-152l12 104h291l-145 -723h153l-20 -104h-449z" />
<glyph unicode="&#xba;" horiz-adv-x="800" d="M176 985q0 156 109.5 281t267.5 125q123 0 191.5 -78t68.5 -187q0 -145 -106.5 -280t-272.5 -135q-125 0 -191.5 79.5t-66.5 194.5zM315 989q0 -176 129 -176q100 0 165 96.5t65 212.5q0 74 -32 120t-95 46q-94 0 -163 -87t-69 -212z" />
<glyph unicode="&#xbb;" horiz-adv-x="1001" d="M4 113l379 407l-211 395l109 31l94 -138l69 -103l48 -72l33 -50l22 -30l15 -20.5t13 -14.5l-2 -8q-33 -23 -462 -428zM377 113l379 407l-211 395l108 31l95 -138l69 -103l47 -72q23 -35 34 -50l22 -30l15 -20.5t13 -14.5l-2 -8q-33 -23 -463 -428z" />
<glyph unicode="&#xbc;" horiz-adv-x="1613" d="M86 549l20 104h164l125 619h-151l12 104h291l-146 -723h154l-20 -104h-449zM287 0l1091 1407l117 -43l-1055 -1364h-153zM870 215l7 80l483 539h119l-103 -515h117l-20 -104h-117l-43 -215h-129l43 215h-357zM1026 319h221l62 316z" />
<glyph unicode="&#xbd;" horiz-adv-x="1734" d="M92 549l21 104h163l125 619h-151l12 104h291l-145 -723h153l-20 -104h-449zM293 0l1091 1407l117 -43l-1055 -1364h-153zM1006 66l233 202q127 111 185.5 185.5t58.5 150.5q0 57 -35 87t-82 30q-37 0 -76 -18.5t-61 -36.5l-21 -19l-67 82q12 12 32.5 30.5t85 50.5 t130.5 32q100 0 164.5 -59.5t64.5 -159.5q0 -86 -56.5 -176.5t-207.5 -223.5l-127 -110h342l-15 -113h-548v66z" />
<glyph unicode="&#xbe;" horiz-adv-x="1630" d="M86 578l47 106q74 -43 162 -43q80 0 133 41t53 100q0 57 -48 85t-120 28h-45l15 109q86 8 165.5 63t79.5 123q0 74 -92 74q-33 0 -68.5 -10.5t-56.5 -20.5l-18 -10l-53 88q96 70 219 69q94 0 153.5 -48t59.5 -122q0 -76 -59.5 -139t-137.5 -102q147 -53 148 -178 q0 -102 -93.5 -184.5t-230.5 -82.5q-119 1 -213 54zM303 0l1092 1407l116 -43l-1054 -1364h-154zM887 215l6 80l483 539h119l-102 -515h116l-20 -104h-117l-43 -215h-129l43 215h-356zM1042 319h222l61 316z" />
<glyph unicode="&#xbf;" horiz-adv-x="702" d="M-53 -94q0 59 42 115.5t102 105.5l122 103q61 54 108.5 129t55.5 161h127v-17q0 -79 -33 -153q-37 -82 -94.5 -140t-114.5 -109.5t-98 -101.5t-41 -91q0 -115 246 -234l67 -30l-65 -138q-16 6 -45 19.5t-102.5 54.5t-129 85t-101.5 109.5t-46 131.5zM381 788 q0 57 38 107.5t105 50.5q88 0 88 -90q0 -59 -36.5 -107.5t-104.5 -48.5q-90 0 -90 88z" />
<glyph unicode="&#xc0;" horiz-adv-x="1204" d="M-72 0l768 1376h154l225 -1376h-157l-66 414h-528l-228 -414h-168zM399 551h430l-96 604zM541 1616l63 147l395 -194l-38 -99z" />
<glyph unicode="&#xc1;" horiz-adv-x="1204" d="M-72 0l768 1376h154l225 -1376h-157l-66 414h-528l-228 -414h-168zM399 551h430l-96 604zM637 1569l395 194l64 -147l-420 -146z" />
<glyph unicode="&#xc2;" horiz-adv-x="1204" d="M-72 0l768 1376h154l225 -1376h-157l-66 414h-528l-228 -414h-168zM399 551h430l-96 604zM477 1548l309 236h142l205 -236l-99 -78l-192 205l-279 -205z" />
<glyph unicode="&#xc3;" horiz-adv-x="1204" d="M-72 0l768 1376h154l225 -1376h-157l-66 414h-528l-228 -414h-168zM399 551h430l-96 604zM455 1516l5 25q3 15 19.5 55t40 71t69.5 55.5t105 24.5q53 0 97.5 -21.5t67 -46t53 -46t61.5 -21.5q84 0 114 125l5 16l114 -20l-5 -27q-3 -16 -19.5 -57t-41 -73t-71.5 -57.5 t-106 -25.5q-68 0 -117 34t-86 67.5t-74 33.5q-41 0 -70.5 -33.5t-37.5 -66.5l-9 -33z" />
<glyph unicode="&#xc4;" horiz-adv-x="1204" d="M-72 0l768 1376h154l225 -1376h-157l-66 414h-528l-228 -414h-168zM399 551h430l-96 604zM510 1604q0 47 30.5 82.5t80.5 35.5q41 0 62.5 -24.5t21.5 -63.5q0 -49 -32 -85t-77 -36q-86 1 -86 91zM956 1604q0 47 31 82.5t80 35.5q84 0 84 -88q0 -49 -32 -85t-77 -36 q-86 1 -86 91z" />
<glyph unicode="&#xc5;" horiz-adv-x="1204" d="M-72 0l768 1376h154l225 -1376h-157l-66 414h-528l-228 -414h-168zM399 551h430l-96 604zM627 1599q0 72 58 128.5t157 56.5q90 0 133 -38t43 -97q0 -76 -58.5 -134.5t-158.5 -58.5q-86 0 -130 41t-44 102zM725 1599q0 -74 78 -73q51 0 86 34.5t35 81.5q0 29 -21.5 50.5 t-60.5 21.5q-57 0 -87 -36t-30 -79z" />
<glyph unicode="&#xc6;" horiz-adv-x="1710" d="M-100 0l995 1366h870l-28 -137h-607l-90 -463h480l-29 -137h-479l-97 -492h605l-27 -137h-764l90 459h-407l-330 -459h-182zM512 596h334l127 641z" />
<glyph unicode="&#xc7;" horiz-adv-x="1318" d="M117 553q0 209 101 399.5t294 314.5t428 124q115 0 219.5 -30t151.5 -58l47 -29l-90 -133q-16 12 -44 30.5t-119 49t-185 30.5q-141 0 -264.5 -64.5t-201 -165.5t-121.5 -222t-44 -240q0 -197 111.5 -320.5t304.5 -123.5q203 0 391 131l14 10l64 -125q-8 -6 -23.5 -16.5 t-67 -38t-104.5 -48t-134 -37t-159 -16.5h-16l-6 -10q-37 -61 -37 -76q0 -29 32.5 -52t64.5 -55t32 -81q0 -74 -70 -130t-168 -56q-49 0 -94 15t-68 32l-20 16l45 94q59 -55 137 -55q47 0 81 21.5t34 54.5q0 27 -32 49t-64.5 49t-32.5 59q0 31 49 109l16 27 q-207 35 -329.5 187.5t-122.5 379.5z" />
<glyph unicode="&#xc8;" horiz-adv-x="1067" d="M86 0l270 1366h766l-28 -137h-607l-90 -463h480l-29 -137h-479l-97 -492h605l-27 -137h-764zM510 1616l63 147l396 -194l-39 -99z" />
<glyph unicode="&#xc9;" horiz-adv-x="1067" d="M86 0l270 1366h766l-28 -137h-607l-90 -463h480l-29 -137h-479l-97 -492h605l-27 -137h-764zM606 1569l395 194l64 -147l-420 -146z" />
<glyph unicode="&#xca;" horiz-adv-x="1067" d="M86 0l270 1366h766l-28 -137h-607l-90 -463h480l-29 -137h-479l-97 -492h605l-27 -137h-764zM446 1548l310 236h141l205 -236l-98 -78l-193 205l-279 -205z" />
<glyph unicode="&#xcb;" horiz-adv-x="1067" d="M86 0l270 1366h766l-28 -137h-607l-90 -463h480l-29 -137h-479l-97 -492h605l-27 -137h-764zM479 1604q0 47 31 82.5t80 35.5q41 0 62.5 -24.5t21.5 -63.5q0 -49 -32 -85t-77 -36q-86 1 -86 91zM926 1604q0 47 30.5 82.5t79.5 35.5q84 0 84 -88q0 -49 -31.5 -85 t-76.5 -36q-86 1 -86 91z" />
<glyph unicode="&#xcc;" horiz-adv-x="552" d="M86 0l270 1366h160l-270 -1366h-160zM203 1616l63 147l396 -194l-39 -99z" />
<glyph unicode="&#xcd;" horiz-adv-x="552" d="M86 0l270 1366h160l-270 -1366h-160zM299 1569l395 194l64 -147l-420 -146z" />
<glyph unicode="&#xce;" horiz-adv-x="552" d="M86 0l270 1366h160l-270 -1366h-160zM139 1548l310 236h141l205 -236l-99 -78l-192 205l-279 -205z" />
<glyph unicode="&#xcf;" horiz-adv-x="552" d="M86 0l270 1366h160l-270 -1366h-160zM221 1604q0 47 31 82.5t80 35.5q41 0 62.5 -24.5t21.5 -63.5q0 -49 -32 -85t-77 -36q-86 1 -86 91zM559 1604q0 47 31 82.5t80 35.5q84 0 84 -88q0 -49 -32 -85t-77 -36q-86 1 -86 91z" />
<glyph unicode="&#xd0;" horiz-adv-x="1419" d="M78 625l26 137h146l121 604h362q166 0 303.5 -55.5t228.5 -183.5t91 -314q0 -362 -265.5 -587.5t-662.5 -225.5h-328l123 625h-145zM287 137h131q375 0 570.5 191.5t195.5 480.5q0 193 -125 306.5t-361 113.5h-196l-92 -467h329l-26 -137h-330z" />
<glyph unicode="&#xd1;" horiz-adv-x="1464" d="M84 0l272 1366h160l528 -1141l228 1141h155l-272 -1366h-160l-534 1120l-221 -1120h-156zM569 1516l5 25q3 15 19.5 55t40 71t70 55.5t105.5 24.5q53 0 97 -21.5t66.5 -46t53.5 -46t61 -21.5q84 0 115 125l4 16l115 -20l-5 -27q-3 -16 -19.5 -57t-41 -73t-71.5 -57.5 t-107 -25.5q-68 0 -117 34t-85.5 67.5t-73.5 33.5q-41 0 -71 -33.5t-38 -66.5l-8 -33z" />
<glyph unicode="&#xd2;" horiz-adv-x="1538" d="M115 557q0 205 100 395.5t286.5 314.5t409.5 124q254 0 409 -157t155 -407q0 -209 -105.5 -405.5t-293 -321.5t-402.5 -125q-252 0 -405.5 165t-153.5 417zM287 563q0 -190 100 -319t293 -129q174 0 320.5 111.5t223 274.5t76.5 326q0 182 -102 303t-291 121 q-254 0 -437 -209t-183 -479zM696 1616l64 147l395 -194l-39 -99z" />
<glyph unicode="&#xd3;" horiz-adv-x="1538" d="M115 557q0 205 100 395.5t286.5 314.5t409.5 124q254 0 409 -157t155 -407q0 -209 -105.5 -405.5t-293 -321.5t-402.5 -125q-252 0 -405.5 165t-153.5 417zM287 563q0 -190 100 -319t293 -129q174 0 320.5 111.5t223 274.5t76.5 326q0 182 -102 303t-291 121 q-254 0 -437 -209t-183 -479zM793 1569l395 194l63 -147l-420 -146z" />
<glyph unicode="&#xd4;" horiz-adv-x="1538" d="M115 557q0 205 100 395.5t286.5 314.5t409.5 124q254 0 409 -157t155 -407q0 -209 -105.5 -405.5t-293 -321.5t-402.5 -125q-252 0 -405.5 165t-153.5 417zM287 563q0 -190 100 -319t293 -129q174 0 320.5 111.5t223 274.5t76.5 326q0 182 -102 303t-291 121 q-254 0 -437 -209t-183 -479zM633 1548l309 236h141l205 -236l-98 -78l-193 205l-278 -205z" />
<glyph unicode="&#xd5;" horiz-adv-x="1538" d="M115 557q0 205 100 395.5t286.5 314.5t409.5 124q254 0 409 -157t155 -407q0 -209 -105.5 -405.5t-293 -321.5t-402.5 -125q-252 0 -405.5 165t-153.5 417zM287 563q0 -190 100 -319t293 -129q174 0 320.5 111.5t223 274.5t76.5 326q0 182 -102 303t-291 121 q-254 0 -437 -209t-183 -479zM610 1516l5 25q3 15 19.5 55t40 71t70 55.5t105.5 24.5q53 0 97 -21.5t66.5 -46t53.5 -46t61 -21.5q84 0 115 125l4 16l115 -20l-5 -27q-3 -16 -19.5 -57t-41 -73t-71.5 -57.5t-107 -25.5q-68 0 -117 34t-85.5 67.5t-73.5 33.5q-41 0 -71 -33.5 t-38 -66.5l-8 -33z" />
<glyph unicode="&#xd6;" horiz-adv-x="1538" d="M115 557q0 205 100 395.5t286.5 314.5t409.5 124q254 0 409 -157t155 -407q0 -209 -105.5 -405.5t-293 -321.5t-402.5 -125q-252 0 -405.5 165t-153.5 417zM287 563q0 -190 100 -319t293 -129q174 0 320.5 111.5t223 274.5t76.5 326q0 182 -102 303t-291 121 q-254 0 -437 -209t-183 -479zM666 1604q0 47 30.5 82.5t79.5 35.5q41 0 62.5 -24.5t21.5 -63.5q0 -49 -31.5 -85t-76.5 -36q-86 1 -86 91zM1112 1604q0 47 30.5 82.5t80.5 35.5q84 0 84 -88q0 -49 -32 -85t-77 -36q-86 1 -86 91z" />
<glyph unicode="&#xd7;" horiz-adv-x="1064" d="M76 143l358 369l-358 371l90 94l360 -371l361 371l90 -94l-361 -371l361 -369l-92 -94l-359 369l-358 -369z" />
<glyph unicode="&#xd8;" horiz-adv-x="1538" d="M115 557q0 205 100 395.5t286.5 314.5t409.5 124q172 0 301 -76l86 112h132l-132 -174q176 -160 177 -426q0 -209 -105.5 -405.5t-293 -321.5t-402.5 -125q-164 0 -293 74l-84 -110h-133l131 174q-180 163 -180 444zM287 563q0 -203 104 -325l729 956q-90 57 -213 57 q-254 0 -437 -209t-183 -479zM471 168q88 -53 209 -53q174 0 320.5 111.5t223 274.5t76.5 326q0 184 -100 299z" />
<glyph unicode="&#xd9;" horiz-adv-x="1411" d="M156 385q0 61 16 147l166 834h160l-168 -848q-12 -68 -13 -121q0 -143 81 -212.5t220 -69.5q170 0 289 100t156 291l170 860h160l-174 -877q-51 -256 -213 -385t-394 -129q-199 0 -327.5 101.5t-128.5 308.5zM627 1616l63 147l395 -194l-38 -99z" />
<glyph unicode="&#xda;" horiz-adv-x="1411" d="M156 385q0 61 16 147l166 834h160l-168 -848q-12 -68 -13 -121q0 -143 81 -212.5t220 -69.5q170 0 289 100t156 291l170 860h160l-174 -877q-51 -256 -213 -385t-394 -129q-199 0 -327.5 101.5t-128.5 308.5zM723 1569l395 194l64 -147l-420 -146z" />
<glyph unicode="&#xdb;" horiz-adv-x="1411" d="M156 385q0 61 16 147l166 834h160l-168 -848q-12 -68 -13 -121q0 -143 81 -212.5t220 -69.5q170 0 289 100t156 291l170 860h160l-174 -877q-51 -256 -213 -385t-394 -129q-199 0 -327.5 101.5t-128.5 308.5zM563 1548l309 236h142l205 -236l-99 -78l-192 205l-279 -205z " />
<glyph unicode="&#xdc;" horiz-adv-x="1411" d="M156 385q0 61 16 147l166 834h160l-168 -848q-12 -68 -13 -121q0 -143 81 -212.5t220 -69.5q170 0 289 100t156 291l170 860h160l-174 -877q-51 -256 -213 -385t-394 -129q-199 0 -327.5 101.5t-128.5 308.5zM596 1604q0 47 30.5 82.5t80.5 35.5q41 0 62.5 -24.5 t21.5 -63.5q0 -49 -32 -85t-77 -36q-86 1 -86 91zM1042 1604q0 47 31 82.5t80 35.5q84 0 84 -88q0 -49 -31.5 -85t-77.5 -36q-86 1 -86 91z" />
<glyph unicode="&#xdd;" horiz-adv-x="1116" d="M160 1366h180l238 -608l483 608h186l-618 -770l-117 -596h-160l117 594zM567 1569l396 194l63 -147l-420 -146z" />
<glyph unicode="&#xde;" horiz-adv-x="1085" d="M84 0l272 1366h160l-63 -311h192q211 0 310.5 -85t99.5 -227q0 -201 -155 -323.5t-361 -122.5h-236l-59 -297h-160zM332 434h186q166 0 265.5 84t99.5 219q0 180 -275 181h-182z" />
<glyph unicode="&#xdf;" horiz-adv-x="1091" d="M-176 -377q70 25 125 83t97 162.5t68.5 186.5t52.5 236.5t36 222.5t28 229l7 50h-150l16 84l150 55q16 109 43 193.5t77 168.5t136 130t203 46q147 0 226 -75.5t79 -184.5q0 -66 -33 -125t-79 -104l-92 -89q-46 -44 -79 -96.5t-33 -107.5q0 -39 28 -77t68 -71.5t80 -71.5 t67.5 -90t27.5 -110q0 -121 -88 -207t-234 -86q-70 0 -131 18.5t-88 35.5l-26 18l40 135q84 -78 203 -78q72 0 116 40t44 112q0 55 -41 106.5t-89 86t-89 94t-41 131.5q0 70 31.5 132t76.5 109l91 92q45 44 76.5 95t31.5 104q0 66 -41 97.5t-108 31.5q-66 0 -117 -28.5 t-81 -69.5t-53.5 -111.5t-34.5 -125t-24 -142.5l-22 -172l-26 -188q-9 -66 -28.5 -183.5t-38 -188.5t-46 -168t-60.5 -158.5t-76 -125t-96 -102.5t-117 -57z" />
<glyph unicode="&#xe0;" horiz-adv-x="989" d="M45 254q0 150 66.5 305.5t206 271t315.5 115.5q49 0 138 -12t142 -12l-135 -633q-16 -74 -16 -139q0 -76 26 -127l-141 -48q-35 59 -35 136q0 49 11 98h-5q-66 -94 -158.5 -164t-195.5 -70q-96 0 -157.5 71t-61.5 208zM209 272q0 -164 94 -163q92 0 220 146t159 290 l55 258q-55 16 -127 16q-145 0 -273 -172t-128 -375zM391 1432h166l135 -340l-98 -56z" />
<glyph unicode="&#xe1;" horiz-adv-x="989" d="M45 254q0 150 66.5 305.5t206 271t315.5 115.5q49 0 138 -12t142 -12l-135 -633q-16 -74 -16 -139q0 -76 26 -127l-141 -48q-35 59 -35 136q0 49 11 98h-5q-66 -94 -158.5 -164t-195.5 -70q-96 0 -157.5 71t-61.5 208zM209 272q0 -164 94 -163q92 0 220 146t159 290 l55 258q-55 16 -127 16q-145 0 -273 -172t-128 -375zM524 1092l279 340h182l-371 -396z" />
<glyph unicode="&#xe2;" horiz-adv-x="989" d="M45 254q0 150 66.5 305.5t206 271t315.5 115.5q49 0 138 -12t142 -12l-135 -633q-16 -74 -16 -139q0 -76 26 -127l-141 -48q-35 59 -35 136q0 49 11 98h-5q-66 -94 -158.5 -164t-195.5 -70q-96 0 -157.5 71t-61.5 208zM209 272q0 -164 94 -163q92 0 220 146t159 290 l55 258q-55 16 -127 16q-145 0 -273 -172t-128 -375zM334 1085l287 347h106l147 -347l-100 -51l-123 256l-227 -256z" />
<glyph unicode="&#xe3;" horiz-adv-x="989" d="M45 254q0 150 66.5 305.5t206 271t315.5 115.5q49 0 138 -12t142 -12l-135 -633q-16 -74 -16 -139q0 -76 26 -127l-141 -48q-35 59 -35 136q0 49 11 98h-5q-66 -94 -158.5 -164t-195.5 -70q-96 0 -157.5 71t-61.5 208zM209 272q0 -164 94 -163q92 0 220 146t159 290 l55 258q-55 16 -127 16q-145 0 -273 -172t-128 -375zM322 1141l5 26q3 16 18 57.5t35.5 73t62.5 57t94 25.5q47 0 81.5 -24.5t52 -54t41 -54t48.5 -24.5q33 0 58.5 38.5t33.5 77.5l8 39l111 -20l-5 -27q-3 -16 -18.5 -59t-38 -76t-64.5 -59.5t-95 -26.5q-45 0 -80 24.5 t-51.5 54.5t-40 54.5t-48.5 24.5q-33 0 -57 -37t-33 -74l-8 -37z" />
<glyph unicode="&#xe4;" horiz-adv-x="989" d="M45 254q0 150 66.5 305.5t206 271t315.5 115.5q49 0 138 -12t142 -12l-135 -633q-16 -74 -16 -139q0 -76 26 -127l-141 -48q-35 59 -35 136q0 49 11 98h-5q-66 -94 -158.5 -164t-195.5 -70q-96 0 -157.5 71t-61.5 208zM209 272q0 -164 94 -163q92 0 220 146t159 290 l55 258q-55 16 -127 16q-145 0 -273 -172t-128 -375zM385 1251q0 47 30.5 83t80.5 36q41 0 62.5 -24.5t21.5 -63.5q0 -49 -32 -85t-77 -36q-86 0 -86 90zM723 1251q0 47 30.5 83t80.5 36q84 0 84 -88q0 -49 -32 -85t-77 -36q-86 0 -86 90z" />
<glyph unicode="&#xe5;" horiz-adv-x="989" d="M45 254q0 150 66.5 305.5t206 271t315.5 115.5q49 0 138 -12t142 -12l-135 -633q-16 -74 -16 -139q0 -76 26 -127l-141 -48q-35 59 -35 136q0 49 11 98h-5q-66 -94 -158.5 -164t-195.5 -70q-96 0 -157.5 71t-61.5 208zM209 272q0 -164 94 -163q92 0 220 146t159 290 l55 258q-55 16 -127 16q-145 0 -273 -172t-128 -375zM465 1247q0 78 53 133.5t150 55.5q78 0 119.5 -41t41.5 -103q0 -78 -54 -136t-150 -58q-78 0 -119 43t-41 106zM555 1245q0 -29 20.5 -48t57.5 -19q49 0 78.5 33.5t29.5 74.5q0 29 -22.5 49.5t-61.5 20.5 q-53 0 -77.5 -34t-24.5 -77z" />
<glyph unicode="&#xe6;" horiz-adv-x="1398" d="M0 190q0 70 38 123.5t91 84t145.5 55t161 36t178.5 23.5q33 143 33 197q0 104 -117 104q-66 0 -140.5 -25.5t-115.5 -50.5l-43 -26l-41 123q18 12 50 30.5t126.5 50t184.5 31.5q221 0 231 -164q143 164 322 164q92 0 155.5 -45t63.5 -151q0 -59 -21.5 -107.5t-65.5 -82.5 t-93 -57.5t-122 -41t-132.5 -27.5t-140.5 -20q-6 -33 -7 -66q0 -96 47.5 -167.5t141.5 -71.5q133 0 276 110l4 4l29 -129l-45 -33q-29 -20 -115 -53t-168 -33q-229 0 -295 220q-49 -84 -144 -152t-220 -68q-109 0 -180.5 56.5t-71.5 158.5zM168 197q0 -88 108 -88 q113 0 198 77.5t118 210.5q-141 -16 -222 -33.5t-141.5 -59t-60.5 -107.5zM776 530q186 23 284.5 66t98.5 135q0 82 -82 82q-86 0 -171 -81t-130 -202z" />
<glyph unicode="&#xe7;" horiz-adv-x="880" d="M63 365q0 221 147.5 401t360.5 180q168 0 269 -94l6 -6l-70 -121q-10 10 -28.5 24.5t-76 39t-114.5 24.5q-133 0 -231.5 -135t-98.5 -307q0 -121 54.5 -191.5t154.5 -70.5q135 0 248 100l4 4l55 -119q-14 -12 -41.5 -32.5t-112.5 -53.5t-169 -33h-23l-6 -10 q-37 -61 -37 -76q0 -23 20.5 -43t44 -33.5t44 -43t20.5 -68.5q0 -74 -69.5 -130t-167.5 -56q-49 0 -94.5 15t-65.5 32l-23 16l46 94q59 -55 137 -55q47 0 80.5 21.5t33.5 54.5q0 27 -32.5 49t-64.5 49t-32 59q0 31 50 109l20 35q-111 35 -174.5 134.5t-63.5 236.5z" />
<glyph unicode="&#xe8;" horiz-adv-x="864" d="M55 326q0 223 151.5 421.5t362.5 198.5q90 0 156 -42t66 -136q0 -90 -67 -167t-171 -124t-182 -72.5t-152 -39.5v-27q0 -229 178 -229q133 0 277 110l4 4l29 -129l-46 -33q-29 -20 -115.5 -53t-170.5 -33q-158 0 -239 99.5t-81 251.5zM240 485q80 20 153.5 47t153.5 84.5 t80 120.5q0 33 -20.5 54.5t-61.5 21.5q-88 0 -177 -95.5t-128 -232.5zM348 1432h166l135 -340l-98 -56z" />
<glyph unicode="&#xe9;" horiz-adv-x="864" d="M55 326q0 223 151.5 421.5t362.5 198.5q90 0 156 -42t66 -136q0 -90 -67 -167t-171 -124t-182 -72.5t-152 -39.5v-27q0 -229 178 -229q133 0 277 110l4 4l29 -129l-46 -33q-29 -20 -115.5 -53t-170.5 -33q-158 0 -239 99.5t-81 251.5zM240 485q80 20 153.5 47t153.5 84.5 t80 120.5q0 33 -20.5 54.5t-61.5 21.5q-88 0 -177 -95.5t-128 -232.5zM481 1092l279 340h182l-371 -396z" />
<glyph unicode="&#xea;" horiz-adv-x="864" d="M55 326q0 223 151.5 421.5t362.5 198.5q90 0 156 -42t66 -136q0 -90 -67 -167t-171 -124t-182 -72.5t-152 -39.5v-27q0 -229 178 -229q133 0 277 110l4 4l29 -129l-46 -33q-29 -20 -115.5 -53t-170.5 -33q-158 0 -239 99.5t-81 251.5zM240 485q80 20 153.5 47t153.5 84.5 t80 120.5q0 33 -20.5 54.5t-61.5 21.5q-88 0 -177 -95.5t-128 -232.5zM291 1085l287 347h106l147 -347l-100 -51l-123 256l-227 -256z" />
<glyph unicode="&#xeb;" horiz-adv-x="864" d="M55 326q0 223 151.5 421.5t362.5 198.5q90 0 156 -42t66 -136q0 -90 -67 -167t-171 -124t-182 -72.5t-152 -39.5v-27q0 -229 178 -229q133 0 277 110l4 4l29 -129l-46 -33q-29 -20 -115.5 -53t-170.5 -33q-158 0 -239 99.5t-81 251.5zM240 485q80 20 153.5 47t153.5 84.5 t80 120.5q0 33 -20.5 54.5t-61.5 21.5q-88 0 -177 -95.5t-128 -232.5zM342 1251q0 47 30.5 83t80.5 36q41 0 62.5 -24.5t21.5 -63.5q0 -49 -32 -85t-77 -36q-86 0 -86 90zM680 1251q0 47 30.5 83t80.5 36q84 0 83 -88q0 -49 -31.5 -85t-76.5 -36q-86 0 -86 90z" />
<glyph unicode="&#xec;" horiz-adv-x="454" d="M35 0l196 922h152l-197 -922h-151zM121 1432h166l135 -340l-98 -56z" />
<glyph unicode="&#xed;" horiz-adv-x="454" d="M35 0l196 922h152l-197 -922h-151zM254 1092l278 340h183l-371 -396z" />
<glyph unicode="&#xee;" horiz-adv-x="454" d="M35 0l196 922h152l-197 -922h-151zM63 1085l287 347h107l147 -347l-100 -51l-123 256l-227 -256z" />
<glyph unicode="&#xef;" horiz-adv-x="454" d="M35 0l196 922h152l-197 -922h-151zM115 1251q0 47 30.5 83t79.5 36q41 0 62.5 -24.5t21.5 -63.5q0 -49 -31.5 -85t-76.5 -36q-86 0 -86 90zM453 1251q0 47 30.5 83t79.5 36q84 0 84 -88q0 -49 -31.5 -85t-76.5 -36q-86 0 -86 90z" />
<glyph unicode="&#xf0;" horiz-adv-x="1067" d="M57 354q0 213 157 402.5t378 189.5q174 0 223 -102q-25 209 -147 350l-271 -152l-51 95l238 135q-98 76 -230 119l35 125q190 -49 328 -170l297 167l49 -98l-266 -149q176 -215 176 -529q0 -317 -165 -539.5t-398 -222.5q-162 0 -257.5 110.5t-95.5 268.5zM221 360 q0 -115 50.5 -183t150.5 -68q88 0 165 59t123 146t71.5 176.5t25.5 156.5q0 63 -50 114.5t-149 51.5q-158 0 -272.5 -133.5t-114.5 -319.5z" />
<glyph unicode="&#xf1;" d="M33 0l192 907l158 29l-51 -238q199 248 405 248q92 0 140.5 -53t48.5 -133q0 -49 -39 -236l-113 -524h-151l112 530q31 139 31 181q0 94 -86 94q-100 0 -241.5 -139.5t-166.5 -249.5l-88 -416h-151zM354 1141l5 26q3 16 18.5 57.5t36 73t62.5 57t93 25.5q47 0 82 -24.5 t52.5 -54t41 -54t48.5 -24.5q33 0 58.5 38.5t33.5 77.5l8 39l111 -20l-6 -27q-3 -16 -18 -59t-37.5 -76t-64.5 -59.5t-96 -26.5q-45 0 -79.5 24.5t-51 54.5t-40 54.5t-48.5 24.5q-33 0 -57.5 -37t-32.5 -74l-8 -37z" />
<glyph unicode="&#xf2;" d="M61 367q0 221 152 400t369 179q168 0 261 -111.5t93 -265.5q0 -92 -36 -194.5t-100.5 -192.5t-167 -148.5t-218.5 -58.5q-170 0 -261.5 114t-91.5 278zM225 373q0 -121 49.5 -192.5t151.5 -71.5q152 0 249 142t97 312q0 113 -49 181.5t-150 68.5q-143 0 -245.5 -127 t-102.5 -313zM412 1432h166l135 -340l-99 -56z" />
<glyph unicode="&#xf3;" d="M61 367q0 221 152 400t369 179q168 0 261 -111.5t93 -265.5q0 -92 -36 -194.5t-100.5 -192.5t-167 -148.5t-218.5 -58.5q-170 0 -261.5 114t-91.5 278zM225 373q0 -121 49.5 -192.5t151.5 -71.5q152 0 249 142t97 312q0 113 -49 181.5t-150 68.5q-143 0 -245.5 -127 t-102.5 -313zM545 1092l278 340h183l-371 -396z" />
<glyph unicode="&#xf4;" d="M61 367q0 221 152 400t369 179q168 0 261 -111.5t93 -265.5q0 -92 -36 -194.5t-100.5 -192.5t-167 -148.5t-218.5 -58.5q-170 0 -261.5 114t-91.5 278zM225 373q0 -121 49.5 -192.5t151.5 -71.5q152 0 249 142t97 312q0 113 -49 181.5t-150 68.5q-143 0 -245.5 -127 t-102.5 -313zM354 1085l287 347h107l147 -347l-100 -51l-123 256l-228 -256z" />
<glyph unicode="&#xf5;" d="M61 367q0 221 152 400t369 179q168 0 261 -111.5t93 -265.5q0 -92 -36 -194.5t-100.5 -192.5t-167 -148.5t-218.5 -58.5q-170 0 -261.5 114t-91.5 278zM225 373q0 -121 49.5 -192.5t151.5 -71.5q152 0 249 142t97 312q0 113 -49 181.5t-150 68.5q-143 0 -245.5 -127 t-102.5 -313zM342 1141l5 26q3 16 18.5 57.5t36 73t62.5 57t93 25.5q47 0 82 -24.5t52.5 -54t41 -54t47.5 -24.5q33 0 58.5 38.5t33.5 77.5l9 39l110 -20l-5 -27q-3 -16 -18.5 -59t-38 -76t-64.5 -59.5t-95 -26.5q-45 0 -80 24.5t-51 54.5t-40 54.5t-48 24.5 q-33 0 -57.5 -37t-32.5 -74l-8 -37z" />
<glyph unicode="&#xf6;" d="M61 367q0 221 152 400t369 179q168 0 261 -111.5t93 -265.5q0 -92 -36 -194.5t-100.5 -192.5t-167 -148.5t-218.5 -58.5q-170 0 -261.5 114t-91.5 278zM225 373q0 -121 49.5 -192.5t151.5 -71.5q152 0 249 142t97 312q0 113 -49 181.5t-150 68.5q-143 0 -245.5 -127 t-102.5 -313zM406 1251q0 47 30.5 83t79.5 36q41 0 62.5 -24.5t21.5 -63.5q0 -49 -31.5 -85t-76.5 -36q-86 0 -86 90zM743 1251q0 47 31 83t80 36q84 0 84 -88q0 -49 -32 -85t-77 -36q-86 0 -86 90z" />
<glyph unicode="&#xf7;" horiz-adv-x="1064" d="M63 449v129h918v-129h-918zM399 905q0 51 36 87t87 36t87 -36t36 -87t-36 -87t-87 -36t-87 36t-36 87zM399 121q0 51 36 87t87 36t87 -36t36 -87t-36 -87t-87 -36t-87 36t-36 87z" />
<glyph unicode="&#xf8;" d="M49 -61l109 145q-96 104 -97 283q0 221 152 400t369 179q102 0 182 -47l63 84h123l-108 -147q94 -102 94 -267q0 -92 -36 -194.5t-100.5 -192.5t-167 -148.5t-218.5 -58.5q-102 0 -181 45l-59 -81h-125zM225 373q0 -100 29 -160l426 571q-45 29 -107 29 q-143 0 -245.5 -127t-102.5 -313zM319 135q41 -27 107 -26q152 0 249 142t97 312q0 80 -29 144z" />
<glyph unicode="&#xf9;" horiz-adv-x="1021" d="M72 176q0 47 39 240l106 506h154l-111 -512q-35 -164 -35 -197q0 -43 22.5 -73.5t69.5 -30.5q100 0 231.5 146t162.5 290l80 377h151l-135 -633q-16 -76 -16 -137q0 -77 26 -129l-147 -48q-35 56 -35 138q0 44 10 96h-4q-164 -233 -365 -234q-100 0 -152 59.5t-52 141.5z M397 1432h166l135 -340l-98 -56z" />
<glyph unicode="&#xfa;" horiz-adv-x="1021" d="M72 176q0 47 39 240l106 506h154l-111 -512q-35 -164 -35 -197q0 -43 22.5 -73.5t69.5 -30.5q100 0 231.5 146t162.5 290l80 377h151l-135 -633q-16 -76 -16 -137q0 -77 26 -129l-147 -48q-35 56 -35 138q0 44 10 96h-4q-164 -233 -365 -234q-100 0 -152 59.5t-52 141.5z M530 1092l279 340h182l-370 -396z" />
<glyph unicode="&#xfb;" horiz-adv-x="1021" d="M72 176q0 47 39 240l106 506h154l-111 -512q-35 -164 -35 -197q0 -43 22.5 -73.5t69.5 -30.5q100 0 231.5 146t162.5 290l80 377h151l-135 -633q-16 -76 -16 -137q0 -77 26 -129l-147 -48q-35 56 -35 138q0 44 10 96h-4q-164 -233 -365 -234q-100 0 -152 59.5t-52 141.5z M340 1085l287 347h106l148 -347l-101 -51l-123 256l-227 -256z" />
<glyph unicode="&#xfc;" horiz-adv-x="1021" d="M72 176q0 47 39 240l106 506h154l-111 -512q-35 -164 -35 -197q0 -43 22.5 -73.5t69.5 -30.5q100 0 231.5 146t162.5 290l80 377h151l-135 -633q-16 -76 -16 -137q0 -77 26 -129l-147 -48q-35 56 -35 138q0 44 10 96h-4q-164 -233 -365 -234q-100 0 -152 59.5t-52 141.5z M391 1251q0 47 31 83t80 36q41 0 62.5 -24.5t21.5 -63.5q0 -49 -32 -85t-77 -36q-86 0 -86 90zM729 1251q0 47 31 83t80 36q84 0 84 -88q0 -49 -32 -85t-77 -36q-86 0 -86 90z" />
<glyph unicode="&#xfd;" horiz-adv-x="868" d="M-276 -358q215 35 444 317q20 25 28.5 50.5t8.5 52.5v65q-6 156 -34 392.5t-67 402.5h164q73 -357 73 -612q0 -68 -5 -128q127 188 236.5 400.5t154.5 339.5h166q-156 -387 -442 -805q-190 -274 -375 -439q-172 -154 -320 -163zM442 1092l279 340h182l-371 -396z" />
<glyph unicode="&#xfe;" horiz-adv-x="1017" d="M-66 -475l406 1909l158 28l-160 -762q162 246 348 246q117 0 179.5 -87t62.5 -228q0 -156 -70 -304.5t-204 -250t-296 -101.5q-90 0 -168 35l-98 -456zM233 213q-3 -15 -3 -27q0 -37 27 -57q36 -27 97 -27q162 0 286 148.5t124 357.5q0 205 -115 205q-100 0 -226 -152.5 t-159 -304.5z" />
<glyph unicode="&#xff;" horiz-adv-x="868" d="M-276 -358q215 35 444 317q20 25 28.5 50.5t8.5 52.5v65q-6 156 -34 392.5t-67 402.5h164q73 -357 73 -612q0 -68 -5 -128q127 188 236.5 400.5t154.5 339.5h166q-156 -387 -442 -805q-190 -274 -375 -439q-172 -154 -320 -163zM303 1251q0 47 31 83t80 36 q41 0 62.5 -24.5t21.5 -63.5q0 -49 -32 -85t-77 -36q-86 0 -86 90zM641 1251q0 47 30.5 83t80.5 36q84 0 84 -88q0 -49 -32 -85t-77 -36q-86 0 -86 90z" />
<glyph unicode="&#x152;" horiz-adv-x="1918" d="M111 551q0 213 109.5 405.5t306 313.5t427.5 121q127 0 254 -25h766l-28 -137h-607l-90 -463h480l-29 -137h-479l-97 -492h605l-27 -137h-762q-129 -25 -242 -25q-281 0 -434 161t-153 415zM285 559q0 -190 105.5 -317t326.5 -127q133 0 248 20l215 1088q-102 31 -246 30 q-266 0 -457.5 -206.5t-191.5 -487.5z" />
<glyph unicode="&#x153;" horiz-adv-x="1544" d="M61 367q0 141 67 274t187.5 219t262.5 86q229 0 313 -215q152 215 358 215q90 0 155.5 -42t65.5 -136q0 -76 -51 -143.5t-117.5 -109.5t-157.5 -77t-143.5 -49t-101.5 -24q0 -256 178 -256q133 0 277 110l4 4l28 -129l-45 -33q-29 -20 -115.5 -53t-170.5 -33 q-213 0 -281 197q-150 -197 -360 -197q-170 0 -261.5 114t-91.5 278zM225 373q0 -121 50.5 -192.5t152.5 -71.5q152 0 248 142t96 312q0 113 -50 181.5t-151 68.5q-141 0 -243.5 -128t-102.5 -312zM920 485q47 10 100 28.5t123.5 49.5t117 77t46.5 97q0 33 -20.5 54.5 t-61.5 21.5q-88 0 -177 -95.5t-128 -232.5z" />
<glyph unicode="&#x178;" horiz-adv-x="1116" d="M160 1366h180l238 -608l483 608h186l-618 -770l-117 -596h-160l117 594zM440 1604q0 47 31 82.5t80 35.5q41 0 62.5 -24.5t21.5 -63.5q0 -49 -32 -85t-77 -36q-86 1 -86 91zM887 1604q0 47 30.5 82.5t79.5 35.5q84 0 84 -88q0 -49 -31.5 -85t-76.5 -36q-86 1 -86 91z" />
<glyph unicode="&#x2c6;" horiz-adv-x="1024" d="M299 1085l287 347h106l148 -347l-101 -51l-123 256l-227 -256z" />
<glyph unicode="&#x2dc;" horiz-adv-x="1024" d="M287 1141l5 26q3 16 18.5 57.5t36 73t62.5 57t93 25.5q47 0 81.5 -24.5t52 -54t41 -54t48.5 -24.5q33 0 58.5 38.5t33.5 77.5l8 39l111 -20l-5 -27q-3 -16 -18.5 -59t-38 -76t-64.5 -59.5t-95 -26.5q-45 0 -80 24.5t-51.5 54.5t-40 54.5t-47.5 24.5q-33 0 -57.5 -37 t-32.5 -74l-9 -37z" />
<glyph unicode="&#x2013;" horiz-adv-x="1087" d="M115 455v129h839v-129h-839z" />
<glyph unicode="&#x2014;" horiz-adv-x="1886" d="M115 455v129h1638v-129h-1638z" />
<glyph unicode="&#x2018;" horiz-adv-x="430" d="M211 1159q0 92 67.5 187.5t176.5 166.5l71 -73q-156 -106 -155 -215q0 -80 86 -183l-174 -86q-72 113 -72 203z" />
<glyph unicode="&#x2019;" horiz-adv-x="432" d="M168 1030q156 106 156 215q0 80 -86 182l174 86q72 -113 71 -202q0 -92 -67.5 -187.5t-175.5 -167.5z" />
<glyph unicode="&#x201a;" horiz-adv-x="466" d="M-49 -240q156 106 155 215q0 80 -86 183l175 86q72 -113 71 -203q0 -92 -67.5 -187.5t-175.5 -166.5z" />
<glyph unicode="&#x201c;" horiz-adv-x="751" d="M211 1159q0 92 67.5 187.5t176.5 166.5l71 -73q-156 -106 -155 -215q0 -80 86 -183l-174 -86q-72 113 -72 203zM532 1159q0 92 68 187.5t176 166.5l72 -73q-156 -106 -156 -215q0 -80 86 -183l-174 -86q-72 113 -72 203z" />
<glyph unicode="&#x201d;" horiz-adv-x="753" d="M168 1030q156 106 156 215q0 80 -86 182l174 86q72 -113 71 -202q0 -92 -67.5 -187.5t-175.5 -167.5zM489 1030q156 106 156 215q0 80 -86 182l174 86q72 -113 72 -202q0 -92 -67.5 -187.5t-176.5 -167.5z" />
<glyph unicode="&#x201e;" horiz-adv-x="788" d="M-49 -240q156 106 155 215q0 80 -86 183l175 86q72 -113 71 -203q0 -92 -67.5 -187.5t-175.5 -166.5zM272 -240q156 106 156 215q0 80 -86 183l174 86q72 -113 72 -203q0 -92 -67.5 -187.5t-176.5 -166.5z" />
<glyph unicode="&#x2022;" horiz-adv-x="778" d="M98 524.5q0 118.5 82 200.5t201 82t201 -82t82 -200.5t-82 -200.5t-201 -82t-201 82t-82 200.5z" />
<glyph unicode="&#x2026;" horiz-adv-x="1513" d="M31 63q0 61 36.5 109.5t104.5 48.5q90 0 90 -86q0 -59 -38 -109.5t-105 -50.5q-88 0 -88 88zM557 63q0 61 37 109.5t104 48.5q90 0 90 -86q0 -59 -37.5 -109.5t-105.5 -50.5q-88 0 -88 88zM1079 63q0 61 37 109.5t105 48.5q90 0 90 -86q0 -59 -38 -109.5t-106 -50.5 q-88 0 -88 88z" />
<glyph unicode="&#x2039;" horiz-adv-x="626" d="M37 510l2 8q33 23 463 428l106 -31l-379 -409l211 -393l-108 -31l-94 138l-70 104l-47 71q-23 35 -34 50l-21 30q-10 14 -15.5 20.5t-13.5 14.5z" />
<glyph unicode="&#x203a;" horiz-adv-x="628" d="M4 113l379 407l-211 395l109 31l94 -138l69 -103l48 -72l33 -50l22 -30l15 -20.5t13 -14.5l-2 -8q-33 -23 -462 -428z" />
<glyph unicode="&#x20ac;" horiz-adv-x="1101" d="M49 375l23 102h98q6 66 31 160h-95l21 102h111q78 182 224 300t339 118q84 0 158.5 -19.5t107.5 -39.5l33 -21l-66 -131q-98 76 -252 76q-127 0 -224 -78t-157 -205h537l-49 -102h-527q-23 -74 -28 -160h473l-49 -102h-424q12 -123 79.5 -193.5t186.5 -70.5q133 0 250 71 l47 -121q-133 -86 -317.5 -86t-293 107.5t-118.5 292.5h-119z" />
<glyph unicode="&#x2122;" horiz-adv-x="1452" d="M223 1278v88h463v-88h-178v-457h-107v457h-178zM776 821l21 545h155l127 -371l129 371h152l20 -545h-102l-16 422l-150 -422h-70l-149 424l-12 -424h-105z" />
<glyph unicode="&#xe000;" horiz-adv-x="920" d="M0 920h920v-920h-920v920z" />
<glyph unicode="&#xfb01;" horiz-adv-x="1011" d="M-188 -377q274 92 374 858l39 312h-125v84l144 53l6 45q12 100 39.5 184t76 163t131.5 124t193 45q61 0 116.5 -16.5t78.5 -32.5l24 -17l-69 -122q-74 53 -158 53q-59 0 -105.5 -25.5t-75 -62.5t-51 -98.5t-33.5 -117t-24 -130.5h547l-197 -922h-151l170 803h-385 q-63 -498 -107 -684q-125 -524 -395 -604z" />
<glyph unicode="&#xfb02;" horiz-adv-x="1030" d="M-188 -377q274 92 374 858l39 312h-125v84l144 53l6 45q12 100 40.5 184t80 163t138.5 124t202 45q143 0 256 -49l106 20l-311 -1462h-152l281 1321q-88 35 -189 35q-63 0 -112 -25.5t-80 -62.5t-54.5 -98.5t-35.5 -116t-25 -131.5h246l-29 -129h-235q-66 -485 -101 -641 q-119 -535 -378 -629q-10 -4 -23 -8z" />
<glyph unicode="&#xfb03;" horiz-adv-x="1560" d="M-188 -377q274 92 374 858l39 312h-125v84l144 53l6 45q12 86 36.5 158.5t70.5 146.5t130 117t195 43q156 0 260 -80q115 131 297 131q61 0 116.5 -16.5t78.5 -32.5l24 -17l-69 -122q-74 53 -158 53q-59 0 -105.5 -25.5t-75 -62.5t-51 -98.5t-34 -117t-23.5 -130.5h547 l-197 -922h-151l170 803h-385q-63 -498 -107 -684q-125 -524 -395 -604l-64 108q274 92 375 858l41 322h-397q-70 -530 -123 -731q-121 -477 -377 -555q-2 -2 -4 -2zM395 922h396l8 53q16 145 69 266q-92 63 -194 64q-57 0 -103.5 -25t-75 -59.5t-49 -91t-31 -101.5 t-20.5 -106z" />
<glyph unicode="&#xfb04;" horiz-adv-x="1579" d="M-188 -377q274 92 374 858l39 312h-125v84l144 53l6 45q12 86 36.5 158.5t70.5 146.5t130 117t195 43q162 0 264 -84q119 135 314 135q143 0 256 -49l106 20l-311 -1462h-152l281 1321q-88 35 -189 35q-78 0 -134 -35t-90 -102.5t-52.5 -133t-32.5 -163.5h248l-29 -129 h-237q-63 -487 -103 -658q-121 -532 -389 -618q-4 0 -8 -2l-64 108q274 92 375 858l41 322h-397q-70 -530 -123 -731q-121 -477 -377 -555q-2 -2 -4 -2zM395 922h396l8 53q18 150 71 264q-96 66 -196 66q-57 0 -103.5 -25t-75 -59.5t-49 -91t-31 -101.5t-20.5 -106z" />
</font>
</defs>
</svg>
